<?xml version="1.0" encoding="UTF-8"?>
<svg width="1200" height="630" viewBox="0 0 1200 630" fill="none" xmlns="http://www.w3.org/2000/svg">
    <rect width="1200" height="630" fill="#2c3e50"/>
    <text x="600" y="200" text-anchor="middle" fill="white" style="font-size: 72px; font-family: Arial, sans-serif; font-weight: bold;">Knight's Tour</text>
    <text x="600" y="280" text-anchor="middle" fill="white" style="font-size: 36px; font-family: Arial, sans-serif;">Le jeu du cavalier</text>
    
    <!-- Cavalier stylisé -->
    <g transform="translate(500,300) scale(1.2)">
        <path d="M356 146c-14.4 0-27.3 6.3-36.1 16.3-40.2-30.2-97.6-25.9-132.7 9.2-35.1 35.1-39.4 92.5-9.2 132.7C168.3 313 162 325.9 162 340.3c0 21.9 17.8 39.7 39.7 39.7h108.6c21.9 0 39.7-17.8 39.7-39.7V146z" fill="white"/>
        <path d="M265 225c-8.3 0-15-6.7-15-15s6.7-15 15-15 15 6.7 15 15-6.7 15-15 15z" fill="#2c3e50"/>
    </g>
</svg> 